<mxfile host="app.diagrams.net" modified="2021-11-22T03:38:51.263Z" agent="5.0 (Macintosh; Intel Mac OS X 10_15_7) AppleWebKit/537.36 (KHTML, like Gecko) Chrome/81.0.4044.138 Safari/537.36" etag="pkpkr6nm4TvuaoHuFN7j" version="15.8.2" type="github">
  <diagram id="KHTxeZb80fiqxAxIxDZ8" name="Page-1">
    <mxGraphModel dx="1216" dy="643" grid="1" gridSize="10" guides="1" tooltips="1" connect="1" arrows="1" fold="1" page="1" pageScale="1" pageWidth="827" pageHeight="1169" math="0" shadow="0">
      <root>
        <mxCell id="0" />
        <mxCell id="1" parent="0" />
        <mxCell id="M7zj4PXyI5NjYx9-QAcN-1" value="AuthFilter.doFilter" style="rounded=0;whiteSpace=wrap;html=1;" vertex="1" parent="1">
          <mxGeometry x="260" y="100" width="120" height="60" as="geometry" />
        </mxCell>
        <mxCell id="M7zj4PXyI5NjYx9-QAcN-2" value="" style="endArrow=classic;html=1;rounded=0;exitX=0.5;exitY=1;exitDx=0;exitDy=0;entryX=0.5;entryY=0;entryDx=0;entryDy=0;" edge="1" parent="1" source="M7zj4PXyI5NjYx9-QAcN-1" target="M7zj4PXyI5NjYx9-QAcN-3">
          <mxGeometry width="50" height="50" relative="1" as="geometry">
            <mxPoint x="390" y="360" as="sourcePoint" />
            <mxPoint x="320" y="260" as="targetPoint" />
          </mxGeometry>
        </mxCell>
        <mxCell id="M7zj4PXyI5NjYx9-QAcN-3" value="AliyunAuthManager.auth" style="rounded=0;whiteSpace=wrap;html=1;" vertex="1" parent="1">
          <mxGeometry x="230" y="210" width="180" height="60" as="geometry" />
        </mxCell>
        <mxCell id="M7zj4PXyI5NjYx9-QAcN-4" value="AuthService.checkPermission" style="rounded=0;whiteSpace=wrap;html=1;" vertex="1" parent="1">
          <mxGeometry x="215" y="320" width="210" height="60" as="geometry" />
        </mxCell>
        <mxCell id="M7zj4PXyI5NjYx9-QAcN-5" value="" style="endArrow=classic;html=1;rounded=0;exitX=0.5;exitY=1;exitDx=0;exitDy=0;entryX=0.5;entryY=0;entryDx=0;entryDy=0;" edge="1" parent="1" source="M7zj4PXyI5NjYx9-QAcN-3" target="M7zj4PXyI5NjYx9-QAcN-4">
          <mxGeometry width="50" height="50" relative="1" as="geometry">
            <mxPoint x="50" y="370" as="sourcePoint" />
            <mxPoint x="320" y="360" as="targetPoint" />
          </mxGeometry>
        </mxCell>
        <mxCell id="M7zj4PXyI5NjYx9-QAcN-6" value="AuthResourceService.checkPermissionAdapter" style="rounded=0;whiteSpace=wrap;html=1;" vertex="1" parent="1">
          <mxGeometry x="170" y="420" width="300" height="60" as="geometry" />
        </mxCell>
        <mxCell id="M7zj4PXyI5NjYx9-QAcN-7" value="" style="endArrow=classic;html=1;rounded=0;exitX=0.5;exitY=1;exitDx=0;exitDy=0;entryX=0.5;entryY=0;entryDx=0;entryDy=0;" edge="1" parent="1" source="M7zj4PXyI5NjYx9-QAcN-4" target="M7zj4PXyI5NjYx9-QAcN-6">
          <mxGeometry width="50" height="50" relative="1" as="geometry">
            <mxPoint x="370" y="390" as="sourcePoint" />
            <mxPoint x="370" y="440" as="targetPoint" />
          </mxGeometry>
        </mxCell>
        <mxCell id="M7zj4PXyI5NjYx9-QAcN-8" value="RamPermissionService.hasPermission" style="rounded=0;whiteSpace=wrap;html=1;" vertex="1" parent="1">
          <mxGeometry x="200" y="540" width="240" height="60" as="geometry" />
        </mxCell>
        <mxCell id="M7zj4PXyI5NjYx9-QAcN-9" value="" style="endArrow=classic;html=1;rounded=0;exitX=0.5;exitY=1;exitDx=0;exitDy=0;entryX=0.5;entryY=0;entryDx=0;entryDy=0;" edge="1" parent="1" source="M7zj4PXyI5NjYx9-QAcN-6" target="M7zj4PXyI5NjYx9-QAcN-8">
          <mxGeometry width="50" height="50" relative="1" as="geometry">
            <mxPoint x="570" y="540" as="sourcePoint" />
            <mxPoint x="620" y="490" as="targetPoint" />
          </mxGeometry>
        </mxCell>
        <mxCell id="M7zj4PXyI5NjYx9-QAcN-10" value="RamPermissionService.evaluate" style="rounded=0;whiteSpace=wrap;html=1;" vertex="1" parent="1">
          <mxGeometry x="200" y="650" width="240" height="60" as="geometry" />
        </mxCell>
        <mxCell id="M7zj4PXyI5NjYx9-QAcN-11" value="" style="endArrow=classic;html=1;rounded=0;exitX=0.5;exitY=1;exitDx=0;exitDy=0;" edge="1" parent="1" source="M7zj4PXyI5NjYx9-QAcN-8" target="M7zj4PXyI5NjYx9-QAcN-10">
          <mxGeometry width="50" height="50" relative="1" as="geometry">
            <mxPoint x="220" y="820" as="sourcePoint" />
            <mxPoint x="270" y="770" as="targetPoint" />
          </mxGeometry>
        </mxCell>
      </root>
    </mxGraphModel>
  </diagram>
</mxfile>
